<?xml version="1.0" encoding="utf-8"?>
<svg id="master-artboard" viewBox="0 0 1400 980" version="1.1" xmlns="http://www.w3.org/2000/svg" x="0px" y="0px" style="enable-background:new 0 0 336 235.2;" width="auto" height="auto"><rect id="ee-background" x="0" y="0" width="100px" height="1px" style="fill:rgb(42, 126, 199); fill-opacity: 0; pointer-events: none;"/>

<g transform="matrix(3.898336881046367, 0, 0, 3.898336881046367, -180.82927426512686, -1250.3500486745945)"><g transform="matrix(1, 0, 0, 1, 0, 0)">
	<path className="st12" d="M348.4,478.5C348.4,478.5,348.4,478.5,348.4,478.5L348.4,478.5L348.4,478.5&#10;&#9;&#9;C348.4,478.4,348.4,478.4,348.4,478.5c0-0.1-0.1-0.2-0.1-0.3c-0.1-0.2-0.2-0.5-0.3-0.9c-0.2-0.8-0.6-1.9-1-3.3&#10;&#9;&#9;c-0.8-2.9-2-6.9-3.1-11.6c-2.2-9.4-4.5-21.5-4.5-32.4c0-0.9,0-1.9,0.1-2.8c-0.9,0.7-2.1,1.2-3.4,1.5c-3.3,0.7-8.3,3.3-20.6,5.7&#10;&#9;&#9;c-12.4,2.4-32.3,4.6-66,4.6c0,0-0.1,0-0.1,0c-3.5,0-13.5,0-23.4,0c-9.9,0-19.9,0-23.4,0h0h0c0,0-0.1,0-0.1,0&#10;&#9;&#9;c-33.7,0-53.6-2.2-66-4.6c-12.4-2.4-17.3-5-20.6-5.7c-1.4-0.3-2.5-0.8-3.4-1.5c0,0.9,0.1,1.9,0.1,2.8c0,21.3-8.6,47.4-8.9,48.5v0&#10;&#9;&#9;l0,0c-1,2.9-1.3,5.1-1.3,6.8c0.1,4.2,2,5.2,2.9,5.6c0.2,0.1,0.3,0.1,0.3,0.1c0,0,0.1,0,0.1,0l0.1,0l0.1,0l0,0&#10;&#9;&#9;c28.7,11.8,82.4,13.3,107.1,13.3c0.1,0,0.1,0,0.1,0h26.1c0.1,0,0.1,0,0.2,0c24.7,0,78.4-1.5,107.1-13.3l0.1,0l0.1,0l0,0&#10;&#9;&#9;c0,0,0,0,0.1,0c0.1,0,0.2-0.1,0.3-0.1c0.9-0.4,2.8-1.4,2.9-5.6C349.8,483.6,349.4,481.3,348.4,478.5L348.4,478.5z" style="fill: rgb(51, 51, 51); opacity: 1;"/>
	<path className="st13" d="M335.7,426.7c3-0.7,4.1-2.4,4.1-3.6c0,0,0,0,0,0c0-1.1-0.7-2.1-3.1-2.2c-1.1,0-2.4,0.3-4.1,1&#10;&#9;&#9;c-3.5,1.4-7.2,2-10.8,2c-6.9,0-13-1.9-15.4-3.3c-0.3-0.2-0.6-0.4-0.8-0.6c0.1,2.8,0.6,7.4,2.6,13.6&#10;&#9;&#9;C325.7,430.9,331.3,427.6,335.7,426.7z" style="fill: rgb(51, 51, 51); opacity: 1;"/>
	<path className="st13" d="M130,423.8c-3.6,0-7.3-0.5-10.8-2c-1.7-0.7-3-1-4.1-1c-2.4,0.1-3.1,1.1-3.1,2.2v0c0,1.2,1.1,3,4.1,3.6&#10;&#9;&#9;c4.4,1,10,4.2,27.4,6.9c2.1-6.3,2.6-10.8,2.6-13.6c-0.2,0.2-0.5,0.4-0.8,0.6C143,421.8,136.9,423.8,130,423.8z" style="fill: rgb(1, 51, 51); opacity: 1;"/>
	<path d="M 348.399994 478.399994 H 348.399994 V 478.399994 H 348.399994 V 478.399994 Z" className="st14" style="fill: rgb(5, 51, 51); opacity: 1;"/>
	<path d="M 371.79998779296875 409.3999938964844 L 371.8999938964844 409.79998779296875 L 371.79998779296875 409.5 Z" className="st14" style="fill: rgb(5, 51, 51); opacity: 1;"/>
	<path className="st15" d="M393.7,415.2c-3.2-6.1-12-14.4-33.3-9.3c-9.6,2.3-23.2,8.3-45,8.4h0c-0.1,0-1.7-0.1-3.6-0.1h0h0h-0.1&#10;&#9;&#9;c-1.7,0-3.6,0.1-4.3,0.5c-0.9,0.3-1.4,1.2-1.4,1.9v0c0,0.7,0.3,1.4,1.5,2.1c1.8,1.1,7.9,3.1,14.3,3c0,0,0,0,0,0&#10;&#9;&#9;c3.4,0,6.8-0.5,10-1.8c1.8-0.8,3.5-1.1,4.9-1.1c1.5,0,2.8,0.4,3.7,1.2c0.9,0.7,1.3,1.8,1.4,2.8l0.1,0l-0.1,0.7&#10;&#9;&#9;c-0.2,2-0.3,4.2-0.3,6.4c0,10.6,2.2,22.6,4.4,31.9c1.6,6.6,3.1,11.8,3.9,14.4c0.5,0,1.5,0.1,2.8,0.1h0c0,0,0,0,0,0c0,0,0,0,0,0&#10;&#9;&#9;c20.4,0,28.2-17.2,39.4-16.4c0,0-1.3-6.9-13-12.7l-11.9-5.3c0,0,4.8-7.6,7.8-11.6C381.8,421.1,393.7,415.2,393.7,415.2z" style="fill: rgb(51, 1, 51); opacity: 1;"/>
	<path className="st15" d="M58.2,415.2c3.2-6.1,12-14.4,33.3-9.3c9.6,2.3,23.2,8.3,45,8.4h0c0.1,0,1.7-0.1,3.6-0.1h0h0h0.1&#10;&#9;&#9;c1.7,0,3.6,0.1,4.3,0.5c0.9,0.3,1.4,1.2,1.4,1.9v0c0,0.7-0.3,1.4-1.5,2.1c-1.8,1.1-7.9,3.1-14.3,3c0,0,0,0,0,0&#10;&#9;&#9;c-3.4,0-6.8-0.5-10-1.8c-1.8-0.8-3.5-1.1-4.9-1.1c-1.5,0-2.8,0.4-3.7,1.2c-0.9,0.7-1.3,1.8-1.4,2.8l-0.1,0l0.1,0.7&#10;&#9;&#9;c0.2,2,0.3,4.2,0.3,6.4c0,10.6-2.2,22.6-4.4,31.9c-1.6,6.6-3.1,11.8-3.9,14.4c-0.5,0-1.5,0.1-2.8,0.1h0c0,0,0,0,0,0c0,0,0,0,0,0&#10;&#9;&#9;c-20.4,0-28.2-17.2-39.4-16.4c0,0,1.3-6.9,13-12.7l11.9-5.3c0,0-4.8-7.6-7.8-11.6C70.1,421.1,58.2,415.2,58.2,415.2z" style="fill: rgb(51, 1, 5); opacity: 1;"/>
</g>
</g>
</svg>