<?xml version="1.0" encoding="utf-8"?>
<svg id="master-artboard" viewBox="0 0 1400 980" version="1.1" xmlns="http://www.w3.org/2000/svg" x="0px" y="0px" style="enable-background:new 0 0 1400 980;" width="8000px" height="80000000px"><rect id="ee-background" x="0" y="0" width="0" height="0" style="fill: rgb(255, 255, 255); fill-opacity: 1; pointer-events: none;"/><defs><style id="ee-google-fonts">@import url(https://fonts.googleapis.com/css?family=Roboto:100,100italic,300,300italic,400,400italic,500,500italic,700,700italic,900,900italic);</style><linearGradient id="gradient-0" gradientUnits="userSpaceOnUse" x1="700" y1="0" x2="700" y2="980">
                <stop offset="0" style="stop-color: #ffffff"/>
                <stop offset="1" style="stop-color: #cccccc"/>
              </linearGradient></defs>























































































































<path d="M 260.79998779296875 86.19999694824219" style="fill: rgb(23, 168, 247); fill-opacity: 1; stroke: rgb(0, 0, 0); stroke-opacity: 1; stroke-width: 0; paint-order: fill;" transform="matrix(1, 0, 0, 1, 20.625030517578125, 5.625)"/><g transform="matrix(1.701388708603254, 0, 0, 1.701388708603254, 374.3541245615021, 340.5330045453173)"><path class="st4" d="M335.4,109.8c-96-67.6-192,67.6-288,0c6.9-2.5,13.8-6,20.7-10.4c-6.9-10.2-13.8-21.3-20.7-33.5&#10;&#9;&#9;c96,67.6,192-67.6,288,0c-7.3,2.2-14.7,5.5-22,9.8C320.8,86,328.1,97.3,335.4,109.8z" style="fill: rgb(51, 51, 51); opacity: 1;" transform="matrix(1, 0, 0, 1, 0, 0)"/></g></svg>